<?xml version="1.0" encoding="utf-8"?>
<!-- Generator: Adobe Illustrator 21.0.2, SVG Export Plug-In . SVG Version: 6.00 Build 0)  -->
<svg version="1.1" id="Layer_1" xmlns="http://www.w3.org/2000/svg" xmlns:xlink="http://www.w3.org/1999/xlink" x="0px" y="0px"
	 viewBox="0 0 720 720" style="enable-background:new 0 0 720 720;" xml:space="preserve">
<style type="text/css">
	.st0{fill:none;}
	.st1{font-family:'Garamond';}
	.st2{font-size:72px;}
</style>
<g>
	<path d="M209.1,205.3l147.4,157.9L198.7,510.6L51.2,352.7L209.1,205.3 M209.2,203.9L49.8,352.7L198.6,512l159.3-148.8L209.2,203.9
		L209.2,203.9z"/>
</g>
<g>
	<path d="M98.7,245.8l215.9,5.5l-5.5,215.9l-215.9-5.5L98.7,245.8 M97.8,244.8l-5.6,217.9l217.9,5.6l5.6-217.9L97.8,244.8
		L97.8,244.8z"/>
</g>
<rect x="294.8" y="169.1" class="st0" width="138.2" height="56.9"/>
<text transform="matrix(1 0 0 1 294.8149 216.4844)" class="st1 st2">XIII</text>
<g>
	<path d="M155.2,213.3L349,308.7l-95.4,193.8L59.8,407.1L155.2,213.3 M154.7,212L58.5,407.6l195.6,96.2l96.2-195.6L154.7,212
		L154.7,212z"/>
</g>
<g>
	<path d="M270.2,218.9l71.4,203.9l-203.9,71.4L66.3,290.3L270.2,218.9 M270.8,217.7L65,289.7l72.1,205.7l205.7-72.1L270.8,217.7
		L270.8,217.7z"/>
</g>
<g>
	<path d="M368.8,56.4l147.4,157.9L358.3,361.7L210.9,203.8L368.8,56.4 M368.9,55L209.5,203.8l148.8,159.3l159.3-148.8L368.9,55
		L368.9,55z"/>
</g>
<g>
	<path d="M258.4,96.9l215.9,5.5l-5.5,215.9l-215.9-5.5L258.4,96.9 M257.5,95.9l-5.6,217.9l217.9,5.6l5.6-217.9L257.5,95.9
		L257.5,95.9z"/>
</g>
<g>
	<path d="M314.9,64.4l193.8,95.4l-95.4,193.8l-193.8-95.4L314.9,64.4 M314.4,63.1l-96.2,195.6l195.6,96.2L510,159.3L314.4,63.1
		L314.4,63.1z"/>
</g>
<g>
	<path d="M429.9,70l71.4,203.9l-203.9,71.4L226,141.4L429.9,70 M430.5,68.8l-205.7,72.1l72.1,205.7l205.7-72.1L430.5,68.8
		L430.5,68.8z"/>
</g>
<g>
	<path d="M357.2,364l147.4,157.9L346.7,669.2L199.3,511.4L357.2,364 M357.3,362.5L197.9,511.3l148.8,159.3L506,521.9L357.3,362.5
		L357.3,362.5z"/>
</g>
<g>
	<path d="M246.8,404.5l215.9,5.5l-5.5,215.9l-215.9-5.5L246.8,404.5 M245.9,403.4l-5.6,217.9l217.9,5.6l5.6-217.9L245.9,403.4
		L245.9,403.4z"/>
</g>
<g>
	<path d="M303.3,371.9l193.8,95.4l-95.4,193.8l-193.8-95.4L303.3,371.9 M302.8,370.6l-96.2,195.6l195.6,96.2l96.2-195.6L302.8,370.6
		L302.8,370.6z"/>
</g>
<g>
	<path d="M418.3,377.6l71.4,203.9l-203.9,71.4L214.4,449L418.3,377.6 M418.9,376.3l-205.7,72.1l72.1,205.7L490.9,582L418.9,376.3
		L418.9,376.3z"/>
</g>
<g>
	<path d="M516.9,215.1l147.4,157.9L506.4,520.3L359,362.5L516.9,215.1 M517,213.6L357.6,362.4l148.8,159.3L665.7,373L517,213.6
		L517,213.6z"/>
</g>
<g>
	<path d="M406.5,255.6l215.9,5.5L616.9,477L401,471.5L406.5,255.6 M405.5,254.5L400,472.5l217.9,5.6l5.6-217.9L405.5,254.5
		L405.5,254.5z"/>
</g>
<g>
	<path d="M462.9,223l193.8,95.4l-95.4,193.8l-193.8-95.4L462.9,223 M462.5,221.7l-96.2,195.6l195.6,96.2l96.2-195.6L462.5,221.7
		L462.5,221.7z"/>
</g>
<g>
	<path d="M577.9,228.7l71.4,203.9l-203.9,71.4l-71.4-203.9L577.9,228.7 M578.6,227.4l-205.7,72.1l72.1,205.7l205.7-72.1L578.6,227.4
		L578.6,227.4z"/>
</g>
<rect x="295.8" y="501.1" class="st0" width="138.2" height="56.9"/>
<text transform="matrix(1 0 0 1 295.8149 548.4844)" class="st1 st2">XIII</text>
<rect x="460.8" y="333.1" class="st0" width="138.2" height="56.9"/>
<text transform="matrix(1 0 0 1 460.8149 380.4844)" class="st1 st2">XIII</text>
<rect x="118.8" y="332.1" class="st0" width="138.2" height="56.9"/>
<text transform="matrix(1 0 0 1 118.8149 379.4844)" class="st1 st2">XIII</text>
</svg>
